<svg width="1460" height="268" viewBox="0 0 1460 268" fill="none" xmlns="http://www.w3.org/2000/svg">
<path d="M1406.93 0H1352.6C1340.02 0 1328.23 4.58514 1319.1 12.4079C1317.02 14.1859 1313.91 13.7367 1312.17 11.6219C1306.48 4.62257 1297.8 0 1287.69 0H1202.8C1191.89 0 1182.12 6.8122 1178.36 17.0492C1172.11 34.0423 1184.69 52.0834 1202.8 52.0834H1240.36C1247.06 52.0834 1251.72 58.7646 1249.38 65.0528C1247.98 68.8145 1244.39 71.3223 1240.36 71.3223H1199.28C1188.41 71.3223 1178.66 78.0971 1174.88 88.2967C1168.55 105.308 1181.13 123.424 1199.28 123.424H1211.62C1218.75 123.424 1224.06 129.245 1222.75 136.244C1221.76 141.503 1217.23 145.152 1212.07 145.152H1150.06C1138.8 145.152 1128.45 152.039 1124.76 162.688C1118.92 179.532 1131.42 197.255 1149.37 197.255H1219.53C1232.54 197.255 1244.82 192.913 1254.72 185.371C1256.83 183.761 1259.92 184.173 1261.55 186.288C1266.58 192.857 1274.48 197.255 1283.74 197.255H1367.66C1392.76 197.255 1415.22 181.646 1423.96 158.103L1456.31 71.0416C1469.1 36.625 1443.64 0.0187148 1406.93 0.0187148V0Z" fill="#F5F5F5"/>
<path d="M1358.26 150.089C1358.29 149.903 1358.19 149.696 1357.99 149.549C1357.9 149.471 1357.79 149.412 1357.66 149.353L1357.57 149.304C1357.5 149.274 1357.45 149.245 1357.38 149.215C1357.29 149.176 1357.19 149.137 1357.1 149.088C1356.65 148.832 1356.46 148.508 1356.56 148.204C1356.72 147.792 1357.09 147.723 1357.4 147.713C1357.52 147.713 1357.65 147.713 1357.77 147.713C1357.93 147.713 1358.07 147.713 1358.22 147.713C1358.49 147.693 1358.76 147.664 1359 147.585C1359.36 147.468 1359.54 147.212 1359.5 146.918C1359.45 146.604 1359.19 146.388 1358.86 146.388H1358.84C1358.53 146.388 1358.22 146.456 1357.92 146.525L1357.83 146.545C1357.74 146.564 1357.65 146.604 1357.56 146.643C1357.46 146.692 1357.35 146.731 1357.23 146.761C1357.08 146.79 1356.82 146.761 1356.72 146.614C1356.62 146.476 1356.64 146.211 1356.72 146.074C1356.83 145.907 1356.95 145.759 1357.06 145.612C1357.14 145.514 1357.23 145.416 1357.3 145.308C1357.6 144.886 1357.57 144.532 1357.18 144.169C1356.89 143.884 1356.52 143.766 1356.11 143.806C1355.62 143.855 1355.23 144.041 1354.96 144.355C1354.66 144.699 1354.37 145.092 1354.09 145.514C1353.66 146.191 1353.06 146.614 1352.29 146.78C1352.01 146.839 1351.67 146.908 1351.33 146.928C1349.53 147.065 1347.68 146.8 1345.81 146.142C1345.18 145.916 1344.61 145.524 1344.17 145.013C1343.8 144.581 1343.37 144.081 1343.05 143.531C1341.88 141.508 1341.03 139.299 1340.55 136.972C1339.91 133.86 1339.22 130.542 1338.51 127.243C1338.06 125.162 1337.6 123.002 1336.84 120.92C1336.22 119.241 1335.45 117.886 1334.47 116.787C1332.37 114.431 1330.02 113.223 1327.29 113.105C1326.46 113.066 1325.59 113.105 1324.71 113.203C1322.5 113.459 1320.37 114.097 1318.57 114.696C1317.94 114.902 1317.39 115.167 1316.93 115.471L1316.4 115.825C1315.17 116.649 1313.9 117.494 1312.74 118.446C1311.26 119.664 1309.79 120.94 1308.36 122.187C1307.66 122.805 1306.94 123.424 1306.23 124.042C1305.89 124.337 1305.53 124.592 1305.2 124.808C1304.81 125.054 1304.42 125.054 1304.1 124.798C1303.77 124.523 1303.68 124.111 1303.89 123.659C1304.08 123.218 1304.31 122.845 1304.55 122.55C1304.91 122.128 1305.3 121.774 1305.74 121.372C1307.89 119.428 1310.31 117.435 1313.37 115.108C1314.98 113.881 1316.72 112.909 1318.56 112.231C1321.62 111.093 1324.49 110.553 1327.31 110.592C1329.94 110.631 1332.08 111.348 1333.82 112.791C1333.95 112.899 1334.1 112.997 1334.23 113.095C1334.3 113.144 1334.37 113.184 1334.43 113.233C1335.18 113.763 1336 113.871 1336.92 113.537C1337.66 113.272 1338.37 112.87 1339.15 112.281C1339.96 111.672 1340.53 110.926 1340.92 109.993C1341.6 108.314 1341.95 106.576 1341.96 104.829C1341.98 101.53 1341.67 98.2803 1341.4 95.816C1341.3 94.9618 1341.51 94.5298 1342.24 94.1175C1342.31 94.0782 1342.38 94.0389 1342.44 93.9997C1342.52 93.9604 1342.6 93.9113 1342.68 93.872C1343.11 93.6168 1343.38 93.2633 1343.49 92.8215C1343.82 91.4961 1343.9 90.2689 1343.75 89.0711C1343.63 88.1581 1343.08 87.5101 1342.11 87.1272C1341.63 86.9406 1341.11 86.8523 1340.57 86.8523C1340.18 86.8523 1339.79 86.8621 1339.4 86.8719C1338.79 86.8817 1338.17 86.9014 1337.56 86.9014H1337.54C1336.35 86.9014 1335.48 86.7247 1334.72 86.3418C1333.5 85.7232 1332.15 85.5072 1330.45 85.684C1329.68 85.7625 1328.83 85.8901 1327.82 86.0865C1326.93 86.2632 1326.14 86.2043 1325.38 85.9196C1325.2 85.8509 1325 85.7723 1324.79 85.7134C1322.57 85.1145 1320.86 83.8677 1319.69 82.0121C1318.97 80.8634 1317.99 79.9602 1316.77 79.3416C1315.79 78.8409 1315.02 78.026 1314.48 76.9264C1313.82 75.5912 1313.47 74.1873 1313.45 72.7637C1313.44 72.1746 1313.49 71.5855 1313.56 70.9768C1313.6 70.5939 1313.55 70.3387 1313.4 70.2012C1313.25 70.0638 1313 70.0147 1312.62 70.0736H1312.57L1311.76 70.2601C1311.12 70.3976 1310.48 70.535 1309.84 70.6921C1308.98 70.8983 1308.27 71.3892 1307.7 72.155C1307.52 72.4004 1307.36 72.6557 1307.2 72.9109L1307.04 73.1564C1306.9 73.3822 1306.76 73.608 1306.62 73.8338C1306.36 74.256 1306.09 74.6782 1305.83 75.1003C1305.32 75.8857 1304.56 76.3963 1303.53 76.6712C1302.78 76.8774 1302 77.1621 1301.14 77.5646C1299.77 78.2028 1298.4 78.9096 1297.21 79.5282C1295.82 80.2449 1294.69 81.0303 1293.73 81.9041C1292.41 83.1117 1291.93 84.5353 1292.29 86.1454C1292.55 87.3235 1292.91 88.4919 1293.23 89.5031C1293.6 90.6812 1294.28 91.771 1295.38 92.9394C1296.15 93.7542 1297.02 94.4513 1297.87 95.1385C1298.12 95.3349 1298.35 95.5214 1298.6 95.7178C1299.33 96.3265 1300.06 96.7487 1300.79 97.0236C1301.78 97.3868 1302.87 97.7697 1304.21 98.2017C1304.81 98.3981 1305.44 98.457 1306.24 98.4079C1307.48 98.3195 1308.83 98.2312 1310.18 98.2115H1310.24C1310.69 98.2115 1311.19 98.2901 1311.76 98.4668C1312.68 98.7319 1313.52 98.8202 1314.35 98.7221C1314.84 98.6632 1315.25 98.6141 1315.66 98.5257C1316.71 98.3097 1317.82 98.3293 1318.94 98.5748C1319.1 98.6141 1319.27 98.6533 1319.44 98.6926C1319.78 98.7712 1320.13 98.8595 1320.49 98.9184C1320.85 98.9773 1321.12 98.9773 1321.35 98.9282C1321.55 98.8791 1321.69 98.781 1321.74 98.6337C1321.78 98.4963 1321.72 98.3293 1321.57 98.1821C1321.43 98.025 1321.24 97.9072 1321.07 97.809C1320.29 97.3279 1319.36 97.0334 1318.24 96.8959L1318.1 96.8763C1317.85 96.8469 1317.58 96.8174 1317.34 96.7192C1317.14 96.6407 1316.92 96.3756 1316.92 96.1498C1316.92 95.9338 1317.12 95.6393 1317.33 95.5607C1317.65 95.4429 1317.99 95.4134 1318.26 95.4724C1318.74 95.5804 1319.24 95.6687 1319.72 95.7571C1320.91 95.9731 1322.13 96.2087 1323.28 96.6898C1323.46 96.7683 1323.69 96.8174 1323.98 96.837C1324.21 96.8567 1324.48 96.7978 1324.65 96.464C1324.81 96.14 1324.65 95.8847 1324.5 95.7276C1324.31 95.5313 1324.09 95.3644 1323.89 95.2465C1323.04 94.7655 1322.27 94.4513 1321.51 94.2844C1321.06 94.1764 1320.65 94.0684 1320.28 93.9408C1319.61 93.7051 1319.55 93.3615 1319.58 93.175C1319.64 92.8215 1320.02 92.6154 1320.54 92.6448C1320.94 92.6645 1321.35 92.7135 1321.7 92.8706C1322.31 93.1357 1322.9 93.4401 1323.47 93.7346C1323.64 93.823 1323.82 93.9113 1323.98 93.9997C1324.08 94.0488 1324.18 94.1077 1324.28 94.1666C1324.4 94.2451 1324.51 94.3138 1324.64 94.3728C1325 94.52 1325.35 94.4709 1325.55 94.2255C1325.79 93.9506 1325.82 93.6266 1325.64 93.2928C1325.52 93.067 1325.35 92.851 1325.16 92.6939C1324.5 92.1245 1323.84 91.7318 1323.13 91.4863C1322.85 91.3881 1322.56 91.2998 1322.29 91.2016C1322.11 91.1427 1321.93 91.0838 1321.75 91.0249C1321.35 90.8874 1320.84 90.6518 1320.97 90.1314C1321.06 89.7289 1321.5 89.5424 1322.13 89.6602C1322.71 89.7682 1323.26 90.0136 1323.79 90.4063C1324.03 90.5929 1324.32 90.7991 1324.62 90.9365C1324.87 91.0445 1325.21 91.1132 1325.48 90.8187C1325.74 90.5438 1325.78 90.21 1325.6 89.8958C1325.43 89.5915 1325.21 89.3362 1324.98 89.1889C1323.5 88.2464 1322.18 87.7948 1320.83 87.7555C1319.4 87.7163 1317.96 87.9421 1316.5 88.1973C1316.05 88.2759 1315.61 88.5115 1315.17 88.7471L1315.14 88.7668C1314.71 88.9926 1314.29 89.2577 1313.89 89.5129C1313.66 89.6602 1313.41 89.8173 1313.18 89.9547C1312.63 90.2885 1311.99 90.4653 1311.36 90.4751C1310.52 90.4751 1309.64 90.4554 1308.57 90.3769C1307.31 90.2885 1306.16 89.7976 1305.16 88.9239C1304.29 88.1581 1303.56 87.4904 1302.89 86.7737C1301.73 85.5563 1300.43 84.3193 1298.72 83.5731C1298.56 83.5044 1298.41 83.3964 1298.26 83.308L1298.21 83.2786C1298.1 83.2 1297.96 83.1117 1297.84 82.9939C1297.62 82.7779 1297.52 82.5324 1297.55 82.3066C1297.58 82.071 1297.73 81.8648 1298.01 81.7077C1298.42 81.4623 1298.88 81.3936 1299.45 81.4819C1300.22 81.6096 1300.89 82.0219 1301.49 82.7288C1302.53 83.9855 1303.87 84.8494 1305.14 85.5858C1305.61 85.8509 1306.08 85.8705 1306.54 85.6251C1307.06 85.3502 1307.58 85.036 1308.02 84.7709C1308.35 84.5647 1308.69 84.3586 1309.02 84.1524C1309.49 83.8578 1309.97 83.5535 1310.46 83.2688C1310.74 83.1117 1311.04 82.9939 1311.32 82.9448C1311.55 82.9055 1311.76 82.9448 1311.88 83.0822C1312.02 83.2099 1312.08 83.4062 1312.05 83.632C1312.01 84.0051 1311.89 84.3389 1311.74 84.5745C1311.56 84.8396 1311.33 85.0949 1311.13 85.3305C1311 85.468 1310.88 85.6152 1310.77 85.7625C1310.68 85.8705 1310.59 85.9785 1310.49 86.0865C1310.24 86.3908 1309.96 86.705 1309.79 87.0585C1309.56 87.4806 1309.53 87.8635 1309.7 88.1384C1309.86 88.4231 1310.23 88.5802 1310.72 88.59C1310.73 88.59 1310.75 88.59 1310.76 88.59C1311.62 88.59 1312.45 88.3151 1313.38 87.7163C1316.04 85.9981 1318.93 85.4385 1321.98 86.0276C1323.36 86.2927 1324.65 86.9112 1326.19 88.0304C1327.27 88.8159 1327.49 89.4147 1327.17 90.6125C1326.88 91.6532 1326.91 92.4681 1327.25 93.2732C1327.51 93.9113 1327.42 94.5593 1326.97 95.2662C1326.77 95.5804 1326.61 95.9731 1326.52 96.3854C1326.34 97.2101 1325.9 97.7796 1325.2 98.133C1324.85 98.3097 1324.52 98.4275 1324.23 98.5061C1323.69 98.6435 1323.43 98.9381 1323.38 99.4486C1323.32 100.077 1322.95 100.548 1322.3 100.833C1321.17 101.324 1320.13 101.412 1319.11 101.108C1318.64 100.97 1318.14 100.833 1317.65 100.823C1316.61 100.803 1315.56 100.843 1314.54 100.882L1314.05 100.902C1313.72 100.911 1313.4 100.941 1313.09 100.961C1312.53 101 1311.94 101.049 1311.37 101.019C1310.18 100.951 1308.96 100.833 1307.79 100.715C1307.39 100.676 1307.01 100.637 1306.62 100.597C1306.32 100.568 1306 100.529 1305.7 100.489C1305.3 100.44 1304.88 100.391 1304.46 100.362C1304.42 100.362 1304.36 100.362 1304.31 100.362C1303.52 100.362 1302.81 100.803 1302.46 101.52C1302.38 101.677 1302.3 101.844 1302.23 102.011C1301.57 103.592 1301.23 105.212 1300.99 106.586C1300.44 109.659 1300.16 112.958 1300.12 116.964C1300.12 117.543 1300.14 118.142 1300.17 118.711C1300.19 119.065 1300.2 119.408 1300.21 119.762C1300.27 122.02 1300.5 124.288 1300.89 126.713C1301.4 129.864 1302.11 132.358 1303.13 134.557C1303.92 136.256 1304.84 137.561 1305.94 138.553C1307.41 139.878 1309.07 140.458 1310.87 140.261C1314.33 139.898 1316.99 138.327 1318.76 135.598C1319.89 133.87 1320.86 131.867 1321.83 129.275C1322.03 128.735 1322.22 128.185 1322.4 127.655C1322.48 127.39 1322.57 127.135 1322.67 126.87C1322.8 126.497 1323.01 126.025 1323.47 125.731C1323.63 125.633 1323.8 125.584 1323.95 125.584C1324.03 125.584 1324.11 125.594 1324.18 125.623C1324.39 125.692 1324.54 125.868 1324.63 126.114C1324.73 126.408 1324.73 126.742 1324.71 126.978C1324.63 128.323 1324.53 129.658 1324.44 130.797C1324.35 132.171 1324.56 133.359 1325.1 134.449C1325.78 135.794 1326.78 137.021 1328.15 138.18C1328.42 138.416 1328.71 138.641 1328.98 138.877C1329.73 139.486 1330.5 140.124 1331.18 140.831C1334.08 143.855 1336.12 147.232 1337.26 150.865C1337.49 151.572 1337.75 152.278 1338.02 152.956L1338.1 153.191C1338.48 154.154 1339.15 154.802 1340.12 155.106C1340.99 155.381 1341.74 155.597 1342.5 155.744C1346.23 156.461 1350.13 156.117 1352.46 155.911C1353.08 155.852 1353.61 155.813 1354.01 155.793C1354.38 155.783 1354.57 155.666 1354.66 155.42C1354.75 155.165 1354.68 154.929 1354.46 154.654C1354.4 154.586 1354.33 154.517 1354.26 154.448C1354.17 154.36 1354.09 154.281 1354.02 154.183C1353.83 153.947 1353.76 153.712 1353.83 153.506C1353.89 153.309 1354.07 153.172 1354.31 153.093C1354.63 153.005 1354.99 153.005 1355.31 153.005H1355.47C1355.62 153.005 1355.78 153.025 1355.93 153.044C1356.09 153.064 1356.25 153.083 1356.42 153.074C1356.75 153.064 1356.97 152.907 1356.99 152.661C1357.02 152.386 1356.86 152.249 1356.58 152.121C1356.51 152.082 1356.44 152.053 1356.36 152.023C1356.2 151.954 1356.03 151.886 1355.89 151.788C1355.76 151.699 1355.54 151.464 1355.58 151.267C1355.62 151.061 1355.83 150.835 1356.02 150.786C1356.23 150.727 1356.46 150.708 1356.68 150.698C1356.78 150.698 1356.88 150.688 1356.98 150.678C1357.07 150.668 1357.16 150.658 1357.26 150.658C1357.48 150.649 1357.69 150.629 1357.88 150.56C1358.09 150.482 1358.22 150.334 1358.25 150.158L1358.26 150.089Z" fill="black"/>
<path d="M1388.13 87.6632C1387.08 87.4498 1385.99 87.4237 1384.87 87.5648C1383.26 87.7805 1381.68 88.3984 1380.17 89.4082C1378 90.8677 1375.72 91.9653 1373.77 92.843C1370.22 94.4566 1366.6 95.1579 1363.02 94.9456C1362.86 94.9377 1362.71 94.9297 1362.52 94.9516C1361.93 94.9783 1361.46 95.2197 1361.16 95.6454C1360.87 96.0613 1360.8 96.5924 1360.97 97.1401C1361.08 97.5217 1361.26 97.9221 1361.51 98.3315C1363.17 101.13 1365.72 103.112 1369.11 104.23C1369.72 104.429 1370.4 104.519 1371.04 104.599L1371.4 104.644C1371.99 104.725 1372.47 104.503 1372.83 103.998L1372.93 103.86C1373.21 103.444 1373.52 103.018 1373.7 102.554C1374 101.834 1374.22 101.066 1374.45 100.326L1374.55 99.9717C1374.66 99.617 1374.75 99.2624 1374.86 98.9077C1374.97 98.494 1375.08 98.0606 1375.21 97.6466C1375.42 96.9961 1375.7 96.5313 1376.1 96.1927C1376.48 95.864 1376.85 95.7713 1377.22 95.9239C1377.61 96.0861 1377.82 96.437 1377.81 96.9183C1377.8 97.3996 1377.75 97.8125 1377.67 98.2063C1377.31 99.9289 1376.73 101.772 1375.87 104.001C1375.7 104.416 1375.47 104.85 1375.17 105.316C1374.3 106.612 1373.06 107.236 1371.48 107.157C1369.99 107.086 1368.67 106.719 1367.53 106.055C1366.39 105.382 1365.33 104.658 1364.36 103.904C1363.54 103.246 1362.73 102.549 1361.94 101.871C1361.3 101.319 1360.64 100.748 1359.98 100.206C1359.3 99.6541 1358.97 99.0787 1358.94 98.3526C1358.93 98.225 1358.91 98.0976 1358.89 97.9604L1358.89 97.8524C1358.63 96.1078 1357.99 94.8979 1356.86 94.0476C1356.27 93.6127 1355.87 93.0088 1355.69 92.2549C1355.63 92.02 1355.55 91.7754 1355.44 91.4724C1355.11 90.524 1354.6 89.8428 1353.88 89.39C1353.6 89.2166 1353.34 89.043 1353.07 88.8695C1352.75 88.6671 1352.44 88.4549 1352.11 88.2624C1351.9 88.1373 1351.68 88.032 1351.45 87.9561C1351.39 87.9372 1351.08 87.8526 1350.99 88.0697C1350.95 88.188 1350.97 88.4136 1351.04 88.5502C1351.12 88.6965 1351.23 88.8229 1351.34 88.9688C1351.43 89.0758 1351.52 89.1925 1351.6 89.3094C1351.79 89.6017 1351.97 89.894 1352.09 90.2264C1352.23 90.6469 1352.02 91.1698 1351.63 91.3611C1351.16 91.5925 1350.81 91.2728 1350.64 91.1177C1350.55 91.0304 1350.46 90.9529 1350.37 90.8656C1350.28 90.7685 1350.18 90.6813 1350.08 90.5942C1349.95 90.4779 1349.8 90.352 1349.65 90.2557C1349.31 90.0437 1349.01 90.0474 1348.71 90.2572C1348.37 90.4969 1348.24 90.8519 1348.36 91.2433C1348.4 91.3901 1348.48 91.5266 1348.55 91.6828C1348.59 91.7609 1348.63 91.839 1348.67 91.9268C1348.7 91.9854 1348.73 92.0538 1348.76 92.1123C1348.84 92.2783 1348.93 92.4539 1348.97 92.6498C1349.05 92.9924 1348.96 93.3176 1348.74 93.5265C1348.5 93.7354 1348.16 93.7886 1347.83 93.665C1347.66 93.6081 1347.52 93.5018 1347.39 93.4051L1347.31 93.3472C1347.24 93.2891 1347.17 93.231 1347.1 93.1729C1347.03 93.1051 1346.96 93.0372 1346.88 92.9891C1346.5 92.7383 1346.15 92.772 1345.83 93.0999C1345.31 93.656 1345.29 94.4417 1345.78 95.015C1345.84 95.0831 1345.9 95.1413 1345.96 95.2093C1346.08 95.3257 1346.21 95.4518 1346.3 95.6078C1346.37 95.7346 1346.38 95.8817 1346.38 96.0192C1346.38 96.0682 1346.39 96.1271 1346.39 96.1762L1346.39 96.3039L1346.28 96.315C1346.23 96.3156 1346.17 96.3261 1346.12 96.3365C1345.99 96.3676 1345.84 96.389 1345.7 96.3415C1345.53 96.2846 1345.39 96.1882 1345.25 96.1015C1345.16 96.0437 1345.07 95.9858 1344.97 95.9379C1344.59 95.7462 1344.28 95.7596 1344.03 95.9689C1343.75 96.2079 1343.66 96.533 1343.78 96.8752C1343.93 97.2956 1344.1 97.7354 1344.36 98.0857C1344.76 98.6112 1345.25 99.0863 1345.69 99.5033C1346.12 99.9105 1346.59 100.406 1346.89 101.04C1347.43 102.241 1348.34 103.134 1349.67 103.776C1350.43 104.14 1351.07 104.643 1351.61 105.274C1352 105.731 1352.39 106.198 1352.77 106.655C1353.75 107.811 1354.76 109.017 1355.73 110.213C1357.21 112.061 1358.82 113.347 1360.65 114.14C1362.65 115.009 1364.48 116.097 1366.22 117.49C1368.64 119.425 1371.58 120.234 1374.15 120.763C1374.6 120.855 1375.09 120.8 1375.64 120.607C1376.43 120.323 1377.13 119.882 1377.79 119.266C1379.12 118.022 1380.37 116.545 1381.85 114.484C1382.94 112.979 1383.76 111.467 1384.34 109.879C1384.67 109.001 1385.02 108.123 1385.36 107.275C1385.51 106.9 1385.67 106.525 1385.81 106.15L1386.07 105.499C1386.57 104.216 1387.08 102.934 1387.6 101.651C1387.83 101.089 1388.05 100.556 1388.5 100.148C1388.77 99.8992 1389.07 99.6992 1389.48 99.8319C1389.87 99.9548 1390.12 100.276 1390.15 100.698C1390.19 101.1 1390.2 101.561 1390.12 101.994C1389.94 102.86 1389.71 103.786 1389.42 104.85C1388.29 108.948 1386.58 112.415 1384.2 115.448C1383.49 116.34 1382.8 117.252 1382.11 118.134C1381.55 118.867 1380.98 119.601 1380.41 120.334C1380.12 120.711 1379.78 121.088 1379.38 121.476C1378.23 122.599 1376.93 123.145 1375.46 123.103C1374.75 123.082 1373.98 123.013 1373.11 122.866C1372.76 122.812 1372.42 122.718 1372.08 122.624C1371.85 122.558 1371.61 122.492 1371.37 122.445C1371.14 122.389 1370.82 122.334 1370.54 122.377C1370.27 122.41 1370.06 122.54 1369.97 122.727C1369.86 122.915 1369.88 123.161 1370.01 123.414C1370.15 123.678 1370.33 123.95 1370.56 124.242C1370.9 124.67 1371.24 125.088 1371.59 125.506C1371.94 125.944 1372.29 126.382 1372.64 126.819C1372.83 127.062 1373.03 127.296 1373.22 127.539C1373.75 128.181 1374.29 128.842 1374.73 129.563C1376.25 132.009 1377.36 134.637 1378.03 137.368C1378.14 137.819 1378.22 138.328 1378.26 138.956C1378.32 139.761 1377.94 140.07 1377.61 140.182C1377.29 140.293 1376.8 140.29 1376.33 139.637C1376.02 139.209 1375.78 138.77 1375.61 138.34C1375.31 137.578 1375 136.737 1374.66 135.691C1374.26 134.478 1373.69 133.356 1372.91 132.285L1371.95 130.951C1369.94 128.177 1367.86 125.306 1365.87 122.443C1363.93 119.678 1361.32 117.676 1357.87 116.304C1356.57 115.789 1355.29 115.854 1353.98 116.518C1352.13 117.443 1350.63 118.816 1349.51 119.9C1348.51 120.874 1347.72 121.728 1347.09 122.717C1345.87 124.588 1345.53 126.703 1345.34 128.522C1345.24 129.554 1345.1 130.577 1344.93 131.56C1344.63 133.223 1344.38 135.013 1344.51 136.858C1344.64 138.732 1345.07 140.288 1345.8 141.634C1346.16 142.287 1346.55 142.823 1346.97 143.24C1347.8 144.064 1348.83 144.288 1349.96 143.901C1350.49 143.718 1350.91 143.507 1351.21 143.258C1351.81 142.769 1352.4 142.281 1352.83 141.697C1355.23 138.408 1355.79 134.837 1354.48 131.083C1354.46 131.014 1354.43 130.946 1354.41 130.887C1354.34 130.731 1354.29 130.574 1354.25 130.408C1354.19 130.163 1354.17 129.977 1354.2 129.8C1354.23 129.495 1354.38 129.267 1354.6 129.166C1354.67 129.136 1354.75 129.116 1354.82 129.115C1354.98 129.113 1355.15 129.17 1355.31 129.286C1355.56 129.469 1355.82 129.731 1356.09 130.071C1357.02 131.239 1357.69 132.586 1358.14 134.19C1358.34 134.914 1358.34 135.641 1358.13 136.331C1358.02 136.676 1357.91 137.031 1357.8 137.376L1357.6 138.036C1357.33 138.884 1357.19 139.455 1357.38 140.307C1357.45 140.659 1357.54 141.051 1357.78 141.323C1357.97 141.537 1358.26 141.671 1358.51 141.785C1358.81 141.919 1359.11 142.053 1359.42 142.187C1359.96 142.426 1360.52 142.665 1361.05 142.943C1361.69 143.279 1362.06 143.913 1362.1 144.718C1362.11 145.169 1362.09 145.621 1362 146.074C1361.69 147.845 1360.91 149.435 1360.11 150.898L1359.94 151.214C1359.64 151.748 1359.35 152.301 1359.06 152.854C1358.91 153.131 1358.81 153.417 1358.74 153.722C1358.58 154.333 1358.78 154.743 1359.35 154.962C1359.73 155.105 1360.15 155.217 1360.62 155.271C1362.69 155.55 1364.75 155.408 1366.68 155.218C1368.73 155.016 1370.58 154.366 1372.21 153.276C1373.31 152.546 1374.35 151.679 1375.3 150.853C1375.73 150.484 1376.13 150.077 1376.53 149.679C1376.92 149.292 1377.31 148.894 1377.74 148.526C1379.78 146.764 1381.54 144.73 1383.13 142.325C1384.87 139.692 1386.28 136.759 1387.46 133.367C1388.43 130.547 1389.44 127.541 1390.69 123.637C1391.37 121.508 1391.92 119.184 1392.36 116.528C1392.96 112.859 1393.14 109.155 1393.28 105.373C1393.34 103.526 1393.4 101.67 1393.45 99.8234L1393.53 97.407C1393.68 95.4711 1393.51 93.7941 1393.05 92.2777C1392.26 89.7246 1390.6 88.1735 1388.11 87.6732L1388.13 87.6632Z" fill="black"/>
<path d="M1393.54 46.749C1393.29 46.5428 1393.06 46.3268 1392.82 46.1108C1392.21 45.561 1391.56 44.9916 1390.88 44.5007C1387.16 41.84 1383.31 40.6325 1378.41 40.5932C1377.3 40.5539 1375.18 40.9564 1373.08 41.899C1372.07 42.3506 1371.08 42.92 1370.13 43.46C1367.74 44.8345 1365.57 46.5428 1363.67 48.5554C1362.38 49.9201 1361.16 51.3535 1360.01 52.6985L1359.93 52.7869C1358.55 54.4068 1357.12 56.0857 1355.8 57.794C1354.3 59.7085 1353.26 61.7898 1352.68 63.9694C1351.89 67.0227 1351.81 70.0564 1352.46 72.992C1352.83 74.6413 1352.61 75.9667 1351.78 77.1645C1351.12 78.0972 1350.9 79.187 1351.02 80.6793C1351.2 82.6821 1351.98 84.0468 1353.5 84.9697C1354.14 85.3526 1354.69 85.9122 1355.1 86.3638C1355.59 86.9038 1356.1 87.0903 1356.74 86.9823C1357.31 86.8842 1357.9 86.9332 1358.49 87.1492C1359.81 87.6401 1361.02 87.3947 1362.08 86.4129L1362.2 86.2951C1362.36 86.1478 1362.53 85.9907 1362.7 85.8533C1363.02 85.6177 1363.31 85.6078 1363.51 85.8238C1363.66 86.0005 1363.75 86.2853 1363.74 86.5307C1363.71 86.9431 1363.48 87.2965 1363.02 87.591C1362.54 87.9052 1362.04 88.1703 1361.57 88.4059C1360.68 88.8673 1359.73 88.9753 1358.76 88.7397C1358.43 88.6612 1358.17 88.6219 1357.92 88.6219C1357.67 88.6219 1357.46 88.7201 1357.35 88.8772C1357.25 89.0244 1357.24 89.2306 1357.31 89.4466C1357.8 90.8113 1358.59 91.4592 1359.76 91.4887C1360.63 91.5083 1361.47 91.4691 1362.11 91.4298H1362.36C1362.99 91.3807 1363.62 91.3414 1364.27 91.3414C1365.06 91.3414 1365.85 91.4003 1366.63 91.5771C1367.02 91.6654 1367.48 91.6752 1368.04 91.6065C1370.94 91.2531 1373.34 90.2909 1375.38 88.6612C1376.73 87.591 1378.01 86.5013 1379.18 85.4802C1380.56 84.2922 1381.92 83.0748 1383.08 82.0145C1383.6 81.5433 1384.17 81.3175 1384.88 81.2782C1385.37 81.2585 1385.88 81.1604 1386.34 81.0131C1388.22 80.4044 1389.54 79.3441 1390.38 77.783C1391.31 76.0747 1391.82 74.445 1391.93 72.825C1391.98 72.1673 1391.85 71.7156 1391.57 71.5193C1391.3 71.3229 1390.83 71.3622 1390.25 71.6273C1389.2 72.0985 1387.86 72.7858 1386.78 73.8756C1386.68 73.9835 1386.57 74.0621 1386.47 74.1406C1386.3 74.2781 1385.99 74.4941 1385.75 74.229C1385.59 74.0621 1385.54 73.7577 1385.58 73.5516C1385.69 72.9625 1385.99 72.4225 1386.51 71.8335C1387.06 71.2247 1387.71 70.6946 1388.51 70.2135C1389.14 69.8404 1389.86 69.3986 1390.57 68.947C1391.38 68.4267 1392 67.7394 1392.45 66.846C1393.86 64.0185 1394.91 60.9553 1395.56 57.7351C1395.95 55.7617 1396.12 54.1025 1396.06 52.512C1395.97 50.0085 1395.15 48.1136 1393.53 46.7097L1393.54 46.749ZM1356.08 79.187C1356 79.295 1355.91 79.403 1355.83 79.511C1355.69 79.6779 1355.55 79.8448 1355.43 80.0215C1355.25 80.3062 1355.06 80.6106 1354.95 80.9247C1354.7 81.6905 1354.95 82.2207 1355.73 82.525C1355.81 82.5545 1355.89 82.584 1355.98 82.6134C1356.16 82.6723 1356.33 82.7214 1356.49 82.8196C1356.66 82.9178 1356.83 83.1632 1356.84 83.3792C1356.85 83.5854 1356.58 83.7915 1356.42 83.8504C1356.24 83.9192 1356.04 83.9486 1355.85 83.9683C1355.78 83.9781 1355.7 83.9879 1355.63 83.9977H1355.62H1355.61C1355 83.9683 1354.46 83.821 1353.96 83.5461C1353.11 83.0847 1352.86 82.476 1353.18 81.6316C1353.49 80.7971 1353.87 79.9626 1354.22 79.1674C1354.34 78.9121 1354.45 78.647 1354.56 78.3917C1354.63 78.2347 1354.72 78.0776 1354.8 77.9205C1354.9 77.7143 1355 77.5278 1355.08 77.3216C1355.3 76.762 1355.17 76.4675 1354.6 76.1729L1354.51 76.1238C1354.21 75.9667 1353.9 75.8097 1353.61 75.6035C1353.25 75.3384 1353.14 74.9948 1353.3 74.6413C1353.42 74.3763 1353.73 74.1603 1354.27 74.337C1354.97 74.5726 1355.64 74.5235 1356.35 74.1603C1356.66 74.013 1356.93 74.0032 1357.14 74.1406C1357.33 74.2781 1357.43 74.5235 1357.4 74.8475C1357.29 76.3202 1357.09 77.8812 1356.1 79.187H1356.08ZM1366.4 80.8462C1366.23 80.8757 1366.05 80.8953 1365.92 80.9051C1365.86 80.9051 1365.81 80.9051 1365.77 80.9149H1365.76C1364.35 80.8266 1363.3 80.6204 1362.37 80.2375C1361.64 79.9331 1361.1 79.4226 1360.78 78.7157C1360.55 78.1758 1360.55 77.675 1360.78 77.2529C1361.12 76.6834 1361.48 76.1729 1361.84 75.7409C1362.18 75.3384 1362.7 75.1715 1363.35 75.25C1363.64 75.2893 1363.86 75.417 1363.94 75.6231C1364.03 75.8293 1363.97 76.0649 1363.79 76.3006C1363.7 76.4085 1363.61 76.5067 1363.51 76.6049C1363.45 76.654 1363.4 76.7129 1363.35 76.7718C1362.89 77.2725 1362.87 77.6652 1363.31 78.1856C1363.72 78.6765 1364.23 79.0005 1364.82 79.1772C1365.1 79.2557 1365.42 79.3146 1365.71 79.3735C1365.83 79.3932 1365.94 79.4128 1366.05 79.4423C1366.11 79.4521 1366.18 79.4619 1366.24 79.4717C1366.3 79.4717 1366.37 79.4913 1366.43 79.5012C1366.64 79.5404 1367.3 79.6681 1367.26 80.1884C1367.24 80.5222 1366.92 80.7775 1366.41 80.8756L1366.4 80.8462Z" fill="black"/>
<path d="M1316.06 73.2707C1316.23 74.2427 1316.68 75.0674 1317.41 75.7251C1318.19 76.432 1318.82 76.9229 1319.44 77.3254C1320.49 78.0029 1321.12 78.7883 1321.45 79.8093C1321.48 79.8977 1321.52 79.9762 1321.55 80.0646C1321.57 80.1137 1321.59 80.1628 1321.61 80.2118C1321.86 80.8107 1322.27 81.2918 1322.92 81.7238C1324.5 82.7743 1326.24 83.1964 1328.23 83.0197L1328.87 82.9608C1329.97 82.8626 1331.1 82.7546 1332.22 82.6761C1332.3 82.6761 1332.39 82.6663 1332.49 82.6663C1333.07 82.6663 1333.65 82.8136 1334.2 83.0983C1335.91 83.9917 1337.86 84.1389 1340.31 83.5597C1341.49 83.2848 1342.45 82.6368 1343.25 81.5961C1344.28 80.2609 1345.03 78.6999 1345.49 76.9622C1345.87 75.519 1346.23 74.0365 1346.57 72.6031C1346.84 71.4544 1347.13 70.2665 1347.43 69.0982L1347.63 68.3422C1348.1 66.5063 1348.58 64.6016 1349.19 62.7755C1350.23 59.6142 1352 56.8947 1353.59 54.6465C1354.05 53.9887 1354.53 53.3407 1355 52.6829C1355.71 51.7011 1356.44 50.6801 1357.14 49.6689C1357.64 48.9325 1358.11 48.1275 1358.52 47.2635C1359.07 46.1148 1358.99 44.976 1358.27 43.8568C1357.47 42.6001 1356.63 41.7558 1355.66 41.1962C1354.26 40.3911 1353.17 39.8118 1352.14 39.3308C1349.58 38.1428 1347.01 37.3181 1344.49 36.8862C1342.53 36.5524 1340.83 36.6211 1339.26 37.112C1336.46 37.9857 1333.91 39.4093 1331.71 41.3532C1329.77 43.0615 1328.22 45.2018 1326.96 47.9213C1326.06 49.8947 1325.09 51.9957 1324.09 54.0378C1323.27 55.7264 1322.12 57.3169 1320.69 58.7503C1320.17 59.2608 1319.67 59.8891 1319.14 60.6451C1318.23 61.9607 1317.49 63.4333 1316.88 65.1613C1316.17 67.1837 1315.79 68.892 1315.71 70.5316C1315.74 70.8163 1315.78 71.101 1315.81 71.3759C1315.89 72.0042 1315.98 72.6522 1316.08 73.2805L1316.06 73.2707ZM1331.17 74.4292C1331.48 73.9481 1331.78 73.4474 1332.06 72.9565C1332.16 72.7896 1332.25 72.6326 1332.34 72.4657C1332.56 72.1024 1332.76 71.7391 1332.98 71.3759C1333.29 70.8457 1333.6 70.3058 1333.91 69.7756C1334.37 69.0098 1335.05 68.7349 1336 68.9411C1336.61 69.0785 1337.24 69.1571 1337.86 69.2454C1338.18 69.2847 1338.5 69.3338 1338.82 69.3829C1339.22 69.4418 1339.63 69.5301 1340.02 69.6087C1340.22 69.648 1340.38 69.6971 1340.52 69.756L1340.61 69.7854C1340.86 69.8836 1341.18 70.0112 1341.14 70.4137C1341.09 70.8654 1340.68 70.8948 1340.41 70.9145C1340.17 70.9341 1339.96 70.9243 1339.76 70.9145C1339.71 70.9145 1339.66 70.9145 1339.61 70.9145L1339.48 70.9439L1339.02 70.8948C1338.66 70.8555 1338.31 70.8261 1337.96 70.7966C1337.62 70.7672 1337.34 70.7574 1337.08 70.7475H1337.06C1336.69 70.7475 1336.49 70.8457 1336.37 71.0617C1336.24 71.3072 1336.28 71.5624 1336.51 71.8864C1336.9 72.446 1337.39 72.878 1337.97 73.1922L1338.14 73.2903C1338.42 73.4376 1338.7 73.5849 1338.97 73.7616C1339 73.7812 1339.03 73.8009 1339.06 73.8205C1339.3 73.958 1339.64 74.1739 1339.51 74.5568C1339.33 75.0575 1338.76 74.9103 1338.53 74.8415C1337.8 74.6452 1337.08 74.4194 1336.37 74.1936L1335.79 74.007C1335.62 73.9481 1335.44 73.8892 1335.27 73.8303C1335.17 73.791 1335.06 73.7518 1334.95 73.7125C1334.52 73.5652 1334.12 73.634 1333.75 73.9383C1333.51 74.1347 1333.29 74.3703 1333.08 74.5863C1332.81 74.8612 1332.55 75.1361 1332.28 75.4208C1331.86 75.8626 1331.44 76.3044 1331.01 76.7462C1330.46 77.3058 1329.73 77.6494 1328.85 77.7672C1328.76 77.7771 1328.67 77.7869 1328.58 77.7869C1328.37 77.7869 1328.16 77.7476 1327.98 77.6887C1327.74 77.5905 1327.57 77.3942 1327.54 77.1585C1327.51 76.9131 1327.63 76.6775 1327.87 76.5204C1328.1 76.3633 1328.37 76.2848 1328.55 76.2553C1329.64 76.0393 1330.52 75.4306 1331.17 74.4488V74.4292ZM1322.04 65.5932C1322.09 65.4361 1322.21 65.3478 1322.38 65.338C1322.49 65.338 1322.59 65.3576 1322.75 65.4067C1322.95 65.4754 1323.14 65.5638 1323.35 65.6423C1323.52 65.711 1323.7 65.7896 1323.88 65.8583L1324.23 65.9859C1324.8 66.2019 1325.38 66.4179 1325.96 66.5946C1326.21 66.6732 1326.5 66.683 1326.79 66.6339C1327.05 66.5848 1327.25 66.4572 1327.34 66.2608C1327.43 66.0547 1327.4 65.8092 1327.26 65.5638C1327.17 65.4165 1327.05 65.2889 1326.93 65.1514C1326.87 65.0827 1326.81 65.014 1326.75 64.9453C1326.61 64.7784 1326.47 64.6213 1326.34 64.4544C1325.97 64.0224 1325.6 63.5806 1325.26 63.129L1325.22 63.0799C1325.01 62.8148 1324.68 62.3828 1325.1 62.0098C1325.49 61.6563 1325.89 61.9901 1326.15 62.2061L1326.21 62.2552C1326.55 62.5399 1326.88 62.8541 1327.19 63.1584C1327.3 63.2664 1327.4 63.3646 1327.52 63.4726C1328.14 64.0518 1328.75 64.6409 1329.36 65.23L1329.46 65.3183C1329.63 65.4754 1329.81 65.6423 1329.95 65.819C1330.29 66.2019 1330.39 66.6339 1330.27 67.115C1330.06 67.9102 1329.72 68.9214 1328.89 69.6676C1328.05 70.4334 1327.44 71.4053 1326.99 72.7111C1326.86 73.094 1326.7 73.4671 1326.55 73.8303L1326.47 74.0169C1326.42 74.1641 1326.34 74.3016 1326.25 74.4292C1326.12 74.6059 1325.94 74.8023 1325.69 74.8023C1325.64 74.8023 1325.59 74.8023 1325.54 74.7826C1325.14 74.6746 1325.09 74.2721 1325.08 74.1347C1325.04 73.7714 1325.17 73.2314 1325.24 72.9664V72.9173C1325.31 72.7013 1325.36 72.4951 1325.42 72.2791C1325.51 71.9551 1325.63 71.641 1325.74 71.3366C1325.8 71.1697 1325.86 71.0028 1325.92 70.8359C1325.96 70.6788 1326.01 70.5217 1326.05 70.3548C1326.33 69.2062 1326.16 68.8331 1325.13 68.244C1324.95 68.136 1324.75 68.0379 1324.55 67.9299C1324.21 67.7433 1323.85 67.5568 1323.51 67.331C1323.1 67.0561 1322.68 66.7125 1322.22 66.2805C1322.06 66.1332 1321.99 65.7896 1322.06 65.5932H1322.04ZM1322.23 76.108C1322.48 76.0099 1322.71 76.0982 1322.92 76.3731C1323.06 76.5793 1323.19 76.7855 1323.29 76.9916C1324.03 78.5821 1325.32 79.3675 1327.21 79.3675H1327.27C1327.43 79.3675 1327.59 79.3675 1327.76 79.3479C1327.91 79.3479 1328.06 79.3381 1328.22 79.3283C1328.42 79.3283 1328.62 79.3283 1328.81 79.3577C1328.98 79.3872 1329.44 79.4755 1329.49 79.9566C1329.53 80.3689 1329.25 80.6242 1328.94 80.7027C1328.84 80.7322 1328.72 80.7518 1328.61 80.7715C1328.26 80.8402 1327.9 80.8696 1327.63 80.8991L1326.95 80.958C1326.86 80.958 1326.76 80.9776 1326.66 80.9776C1326.54 80.9776 1326.43 80.9874 1326.31 80.9874C1326.17 80.9874 1326.04 80.9874 1325.92 80.9678C1325.68 80.9482 1325.46 80.8991 1325.23 80.8402C1325.01 80.7813 1324.81 80.6929 1324.61 80.5947C1324.42 80.4966 1324.23 80.3788 1324.05 80.2413C1323.88 80.1137 1323.71 79.9566 1323.55 79.7897C1323.4 79.6228 1323.25 79.4461 1323.11 79.2497C1322.98 79.0632 1322.85 78.8472 1322.72 78.6214C1322.52 78.2581 1322.28 77.8261 1322.06 77.3843C1321.98 77.2076 1321.92 77.0113 1321.89 76.8051C1321.84 76.4615 1321.97 76.2062 1322.24 76.0884L1322.23 76.108Z" fill="black"/>
<path d="M1338.92 115.564C1338.53 115.937 1338.36 116.398 1338.44 116.899C1338.51 117.36 1338.63 117.812 1338.79 118.215C1339.53 119.992 1340.22 121.739 1340.65 123.585L1340.7 123.791C1340.8 124.194 1340.89 124.606 1341.03 124.989C1341.13 125.323 1341.27 125.588 1341.44 125.794C1341.58 125.98 1341.74 126.069 1341.92 126.079C1342.1 126.079 1342.28 126 1342.46 125.814C1342.56 125.706 1342.66 125.578 1342.74 125.431L1342.86 125.234C1343.02 124.959 1343.19 124.675 1343.33 124.39C1344.18 122.554 1344.83 121.14 1345.42 119.815C1345.85 118.843 1346.44 118.018 1347.19 117.37L1347.29 117.292C1348.03 116.644 1348.8 115.976 1349.61 115.387C1350.42 114.798 1351.28 114.248 1352.11 113.708C1352.46 113.482 1352.81 113.257 1353.16 113.021C1353.95 112.491 1354.11 111.961 1353.66 111.254C1352.6 109.594 1351.12 108.672 1349.36 108.593C1348.2 108.632 1347.36 108.829 1346.62 109.212C1345.87 109.614 1345.06 110.056 1344.36 110.586C1342.87 111.715 1341.51 113.041 1340.19 114.327C1339.77 114.739 1339.35 115.151 1338.93 115.554L1338.92 115.564Z" fill="black"/>
<path d="M1326.09 138.855C1325.91 138.845 1325.72 138.835 1325.54 138.835C1325.32 138.835 1325.11 138.825 1324.89 138.806C1323.67 138.698 1322.95 138.069 1322.76 136.94C1322.7 136.498 1322.52 136.204 1322.25 136.106C1322.19 136.076 1322.11 136.066 1322.03 136.066C1321.78 136.066 1321.5 136.184 1321.21 136.42C1321.16 136.459 1321.11 136.489 1321.07 136.528C1320.7 136.911 1320.32 137.294 1319.95 137.677C1318.98 138.678 1317.97 139.709 1317 140.74C1316.5 141.27 1316.17 141.977 1315.97 142.9C1315.81 143.686 1316.05 144.295 1316.69 144.707C1318.45 145.846 1319.87 146.563 1321.3 147.034C1321.57 147.122 1321.8 147.171 1322.02 147.191C1322.4 147.23 1322.69 147.171 1322.87 147.024C1323.06 146.867 1323.17 146.612 1323.2 146.229C1323.26 144.864 1323.05 143.499 1322.87 142.409C1322.84 142.203 1322.81 142.017 1322.78 141.84V141.771C1322.72 141.457 1322.68 141.123 1322.71 140.799C1322.75 140.465 1322.91 140.22 1323.16 140.112C1323.4 140.004 1323.69 140.063 1323.97 140.259C1324.14 140.377 1324.27 140.534 1324.4 140.681C1324.44 140.73 1324.48 140.77 1324.52 140.809C1324.59 140.878 1324.64 140.956 1324.71 141.025C1324.8 141.133 1324.89 141.231 1324.99 141.319C1325.48 141.781 1326.12 141.85 1326.72 141.516C1327.29 141.192 1327.54 140.563 1327.39 139.837C1327.26 139.248 1326.83 138.924 1326.09 138.875V138.855Z" fill="black"/>
<path d="M1327.17 143.923C1327.09 143.914 1327 143.904 1326.93 143.904C1326.67 143.904 1326.42 143.973 1326.16 144.12C1325.8 144.336 1325.64 144.689 1325.76 145.043C1325.8 145.18 1325.89 145.298 1326 145.396C1326.24 145.583 1326.58 145.632 1326.89 145.514C1327.13 145.426 1327.33 145.347 1327.51 145.229C1327.86 145.023 1327.83 144.66 1327.78 144.473C1327.7 144.169 1327.49 143.982 1327.17 143.923Z" fill="black"/>
<path d="M1326.36 147.852H1326.35C1326.11 147.852 1325.82 147.989 1325.74 148.245C1325.68 148.421 1325.74 148.637 1325.89 148.775C1326.03 148.912 1326.22 148.981 1326.44 148.981H1326.45C1326.62 148.981 1326.8 148.922 1326.93 148.824C1327.07 148.716 1327.14 148.519 1327.12 148.333C1327.12 148.245 1327.09 148.127 1326.98 148.029C1326.85 147.911 1326.57 147.852 1326.36 147.852Z" fill="black"/>
<path d="M659.197 123.682L659.197 123.662C653.899 123.652 648.591 123.549 643.303 123.673C638.452 123.778 634.48 125.799 632.549 130.369C629.93 136.552 634.031 143.327 641.188 143.682C652.365 144.23 663.574 144.024 674.794 144.034C676.393 144.037 678.046 143.678 679.574 143.133C685.229 141.136 688.025 134.498 685.271 129.443C683.201 125.641 679.662 123.876 675.423 123.754C670.022 123.589 664.609 123.692 659.218 123.682L659.197 123.682ZM304.164 143.468C308.963 143.477 313.762 143.662 318.541 143.609C319.757 143.611 320.983 143.344 322.178 143.139C328.08 142.105 331.536 138.221 331.391 132.799C331.245 127.428 326.858 123.301 320.439 123.082C313.105 122.82 305.761 122.9 298.416 122.907C294.438 122.899 290.418 122.737 286.521 123.267C280.546 124.053 276.798 128.413 276.965 133.68C277.112 138.689 280.792 142.607 286.775 143.094C292.54 143.54 298.368 143.457 304.175 143.468L304.164 143.468ZM835.807 123.97C830.394 123.939 824.993 123.857 819.58 123.94C817.658 123.977 815.695 124.222 813.865 124.788C809.406 126.145 806.833 130.011 806.959 134.75C807.066 139.055 809.822 142.568 814.329 143.704C816.478 144.236 818.763 144.571 820.975 144.586C830.667 144.697 840.359 144.808 850.052 144.599C853.137 144.532 856.452 144.021 859.249 142.815C865.84 139.941 866.948 130.992 861.18 126.749C858.96 125.11 855.762 124.307 852.936 124.116C847.245 123.701 841.51 123.98 835.807 123.97ZM1027.64 144.992C1030.47 144.883 1033.37 144.64 1036.1 143.921C1040.44 142.77 1043.38 138.657 1043.34 134.425C1043.33 130.265 1040.5 126.493 1036.18 125.233C1034.17 124.639 1031.98 124.366 1029.87 124.352C1020.29 124.241 1010.71 124.265 1001.13 124.247C999.192 124.243 997.249 124.219 995.327 124.422C989.789 125.022 985.554 129.019 985.233 133.799C984.859 139.448 988.351 143.863 994.656 144.382C1001.01 144.911 1023.05 145.18 1027.61 145.012L1027.63 144.992L1027.64 144.992ZM127.728 122.62L127.728 122.692C121.713 122.681 115.699 122.515 109.694 122.7C104.209 122.866 99.881 126.21 98.886 130.555C97.4826 136.699 101.243 142.242 107.984 142.699C116.917 143.306 125.903 143.26 134.847 143.318C139.117 143.347 143.417 143.262 147.646 142.711C152.883 142.058 156.735 137.564 156.765 132.804C156.774 128.138 153.394 124.241 148.192 123.134C146.707 122.81 145.17 122.694 143.643 122.67C138.345 122.598 133.036 122.63 127.749 122.62L127.728 122.62ZM999.181 196.884C978.976 196.847 958.813 196.571 938.608 196.813C928.136 196.949 919.686 193.777 913.532 185.042C911.211 181.737 909.154 181.785 906.81 185.164C900.894 193.649 892.64 196.727 882.553 196.677C841.427 196.487 800.31 196.39 759.204 196.448C749.075 196.47 740.895 193.413 735.177 184.658C732.878 181.125 731.433 181.257 728.55 184.46C728.154 184.914 727.707 185.348 727.353 185.844C722.01 193.181 714.67 196.334 705.705 196.296C666.614 196.182 627.555 196.151 588.464 196.078C584.807 196.071 581.12 195.971 577.485 195.581C570.827 194.886 565.608 191.555 561.618 186.27C561.256 185.773 560.883 185.296 560.499 184.83C557.287 180.653 556.3 180.476 552.75 184.401C547.233 190.465 540.982 194.779 532.452 195.673C514.975 197.483 499.62 181.798 502.54 164.502C503.348 159.744 505.092 155.111 506.565 150.468C508.112 145.514 509.118 140.59 507.05 135.578C504.227 128.681 499.02 124.346 491.646 123.732C484.874 123.151 477.924 122.982 471.202 123.829C459.398 125.328 451.313 132.37 446.888 143.248C442.223 154.735 438.16 166.472 433.454 177.939C429.895 186.604 423.506 192.47 414.173 194.729C402.045 197.666 390.128 192.749 383.52 182.192C379.263 175.376 377.954 175.394 374.171 182.309C369.334 191.158 361.805 195.563 351.759 195.658C341.766 195.753 331.772 195.682 321.758 195.664L231.454 195.496C228.711 195.491 225.948 195.372 223.206 195.118C216.278 194.495 210.956 190.998 206.758 185.64C206.188 184.915 205.66 184.179 205.048 183.495C202.498 180.717 201.012 180.797 198.597 183.659C196.9 185.663 195.255 187.792 193.33 189.568C188.387 194.132 182.235 195.373 175.742 195.382C150.135 195.375 124.528 195.172 98.921 195.414C93.8411 195.457 88.4997 196.492 83.7386 198.252C74.7673 201.599 68.9994 208.511 65.5237 217.32C61.3173 228.012 57.4846 238.86 52.8943 249.365C47.3337 262.082 32.4669 268.304 19.3234 264.027C5.81656 259.635 -2.5208 246.136 0.766679 232.401C2.77697 223.94 6.10599 215.792 9.1546 207.602C19.261 180.448 29.4711 153.356 39.6917 126.243C44.7862 112.749 49.7563 99.1922 55.1312 85.8018C58.9405 76.3407 66.2219 71.139 76.5795 70.8582C86.5735 70.5768 96.5671 70.4816 106.571 70.5002C138.006 70.4967 169.419 70.5759 200.854 70.6758C204.209 70.6821 207.575 70.9884 210.929 71.2637C218.107 71.8669 223.043 76.1394 227.355 81.3834C227.946 82.0881 228.495 82.8238 229.086 83.5079C230.682 85.3941 232.324 85.4282 233.958 83.5377C235.082 82.2256 236.186 80.9031 237.321 79.5807C241.673 74.3943 247.236 71.4762 254.009 71.2094C260.326 70.9522 266.653 70.7777 272.969 70.7895C306.232 70.81 339.495 70.872 372.747 70.9753C376.819 70.9829 380.912 71.1768 384.973 71.5155C392.15 72.0773 397.566 75.8229 401.96 81.2844C402.396 81.8336 402.8 82.4449 403.266 82.9735C405.598 85.6165 407.603 85.5581 409.168 82.3739C411.097 78.4661 412.652 74.3506 414.197 70.2765C420.378 53.9282 426.423 37.5175 432.676 21.1901C436.632 10.8601 443.575 3.5261 454.954 1.56053C474.895 -1.88952 491.162 15.4422 486.668 35.2394C485.956 38.4045 484.787 41.4549 484.002 44.6095C480.36 58.9447 489.241 70.8612 504.054 71.0957C520.176 71.3534 536.288 71.2179 552.411 71.3203C556.576 71.3488 560.773 71.5118 564.938 71.8611C571.731 72.4014 577.095 75.6606 581.313 80.9044C581.821 81.5366 582.277 82.2204 582.816 82.8216C585.708 86.1693 587.401 86.1931 590.109 82.6489C594.274 77.1931 599.341 73.1565 606.334 72.1348C609.358 71.6851 612.423 71.4425 615.477 71.4481C654.453 71.4794 693.42 71.5209 732.417 71.666C739.688 71.6795 747.021 72.2623 752.725 77.7159C754.778 79.6754 756.488 81.9758 758.343 84.1212C760.582 86.6709 761.787 86.7249 764.077 84.2871C765.815 82.4278 767.44 80.4647 769.157 78.6053C772.8 74.6696 777.53 72.8365 782.726 72.2978C786.362 71.901 790.061 71.7837 793.707 71.7698C818.192 71.7533 842.677 71.861 867.183 71.8135C878.776 71.7937 888.041 66.782 894.147 57.1182C897.314 52.1158 899.195 46.2728 901.407 40.7202C904.1 34.0302 906.388 27.1636 909.153 20.5048C913.15 10.8785 920.06 4.32053 930.607 2.46723C950.892 -1.096 967.459 16.764 962.206 36.9013C959.978 45.4134 956.316 53.5502 953.382 61.8954C952.421 64.6668 951.605 67.5109 951.06 70.3762C950.619 72.8071 952.019 74.0411 954.502 73.6422C973.467 70.5835 992.598 72.7818 1011.62 72.1136C1014.46 72.0051 1017.43 71.9899 1020.06 71.0842C1027.66 68.4804 1029.43 60.1951 1023.45 54.8653C1020.3 52.0552 1016.28 50.2058 1013.04 47.4679C1004.52 40.3328 1001.87 31.1287 1004.83 20.5899C1007.7 10.2889 1015.01 4.49739 1025.42 2.50932C1027.21 2.17118 1029.06 1.94697 1030.89 1.95038C1062.02 1.96698 1093.12 2.02491 1124.25 2.1243C1129.6 2.13426 1134.65 3.43713 1138.72 7.04572C1145.1 12.7075 1146.74 19.9436 1144.33 27.8655C1142.14 35.0531 1139.39 42.0638 1136.75 49.116C1127.28 74.4296 1117.75 99.7432 1108.21 125.026C1101.16 143.763 1094.13 162.51 1086.92 181.185C1082.67 192.197 1074.11 197.024 1062.54 197.002L999.181 196.884Z" fill="#F5F5F5"/>
</svg>
